<?xml version="1.0" standalone="no"?>
<!DOCTYPE svg PUBLIC "-//W3C//DTD SVG 20010904//EN"
 "http://www.w3.org/TR/2001/REC-SVG-20010904/DTD/svg10.dtd">
<svg version="1.0" xmlns="http://www.w3.org/2000/svg"
 width="382.000000pt" height="81.000000pt" viewBox="0 0 382.000000 81.000000"
 preserveAspectRatio="xMidYMid meet">

<g transform="translate(0.000000,81.000000) scale(0.100000,-0.100000)"
fill="#000000" stroke="none">
<path d="M750 799 c-30 -4 -114 -15 -187 -24 -360 -44 -532 -129 -557 -275 -9
-48 11 -82 58 -98 49 -16 64 -6 36 23 -44 46 -24 110 51 165 64 46 240 103
228 74 -2 -5 -30 -60 -62 -121 -54 -106 -60 -113 -104 -133 -64 -28 -130 -84
-153 -130 -24 -48 -26 -105 -4 -114 28 -11 33 -6 27 27 -5 36 17 91 46 115 36
29 93 63 98 58 3 -2 -8 -40 -25 -83 -16 -43 -36 -104 -42 -135 -13 -56 -12
-58 11 -77 30 -26 39 -26 39 -2 0 26 51 169 94 263 39 87 27 81 201 96 72 6
81 9 94 34 9 15 13 29 11 31 -3 3 -57 -4 -120 -14 -63 -10 -116 -17 -117 -15
-2 1 19 40 47 86 27 46 50 86 50 90 0 4 -7 13 -15 20 -8 7 -15 16 -15 20 0 4
57 13 128 19 243 22 230 19 241 54 13 35 14 57 4 56 -5 -1 -33 -5 -63 -10z"/>
<path d="M2643 746 c-70 -17 -161 -63 -179 -91 -13 -21 -11 -75 3 -75 3 0 27
20 55 45 70 63 158 104 241 112 45 4 67 2 67 -5 0 -14 -81 -75 -260 -197 -294
-200 -410 -306 -410 -376 0 -60 72 -110 194 -136 141 -29 503 -10 527 29 5 7
9 23 9 34 0 21 -1 21 -42 7 -23 -8 -90 -19 -149 -25 -128 -14 -323 0 -409 29
-49 16 -55 21 -58 48 -5 55 68 115 420 346 174 114 268 194 268 227 0 13 -11
24 -31 31 -42 14 -180 13 -246 -3z"/>
<path d="M2133 683 c-18 -54 -66 -162 -83 -190 -19 -31 -20 -32 -47 -18 -38
20 -60 19 -118 -9 -60 -28 -111 -82 -155 -165 -31 -58 -98 -131 -120 -131 -21
0 -9 60 30 153 45 106 47 119 24 141 -23 23 -64 20 -106 -9 l-37 -25 -25 25
c-43 43 -58 34 -90 -56 -49 -137 -140 -239 -214 -239 -55 0 -74 73 -24 91 57
21 95 45 129 84 82 93 73 153 -20 146 -76 -5 -149 -62 -207 -160 -60 -103
-160 -186 -160 -133 0 16 55 129 106 220 l19 33 -28 25 c-16 13 -33 22 -38 18
-5 -3 -32 -53 -60 -110 -53 -111 -121 -194 -159 -194 -41 0 -19 52 70 165 49
62 70 96 70 114 0 24 -44 22 -102 -4 -63 -28 -82 -27 -55 3 23 26 21 58 -5 76
-21 15 -23 14 -50 -32 -16 -26 -27 -58 -26 -72 2 -24 -8 -49 -40 -97 -13 -20
-13 -23 1 -23 9 0 30 20 46 44 23 33 38 45 63 49 18 2 35 3 37 1 2 -1 -18 -30
-43 -63 -64 -82 -89 -141 -76 -175 19 -52 97 -52 159 -1 36 31 41 31 41 0 0
-17 7 -28 23 -34 38 -15 75 -1 126 45 27 24 52 44 55 44 3 0 6 -9 6 -20 0 -30
42 -68 85 -76 52 -9 133 18 171 57 l29 31 5 -33 c3 -23 13 -38 30 -46 13 -6
26 -10 28 -8 2 1 10 33 17 70 18 83 51 141 112 195 59 52 66 38 30 -53 -39
-97 -49 -141 -37 -171 21 -57 93 -51 157 13 29 29 32 30 38 11 10 -30 54 -60
89 -60 20 0 48 12 74 31 l42 31 10 -26 c11 -30 53 -50 87 -41 35 8 91 63 139
134 39 59 46 81 25 81 -5 0 -27 -29 -50 -65 -59 -91 -121 -135 -121 -85 0 34
48 149 119 284 94 177 95 182 71 206 -25 25 -59 26 -67 3z m-140 -244 c13 -18
12 -27 -12 -83 -31 -73 -48 -100 -92 -144 -42 -43 -82 -42 -87 2 -7 61 63 191
121 227 41 24 52 24 70 -2z m-681 -19 c-1 -14 -15 -41 -31 -60 -27 -34 -114
-100 -132 -100 -12 0 15 64 47 113 45 68 122 99 116 47z"/>
<path d="M1021 643 c-23 -89 -23 -91 -2 -112 12 -12 25 -21 29 -21 9 0 52 97
52 116 0 14 -43 54 -58 54 -6 0 -16 -17 -21 -37z"/>
<path d="M2940 481 c-73 -23 -123 -67 -160 -138 -38 -74 -23 -159 34 -197 31
-20 98 -21 135 -1 46 23 100 95 118 154 14 50 14 59 -1 107 -9 28 -22 57 -30
63 -18 15 -66 21 -96 12z m75 -31 c3 -6 -7 -22 -24 -36 -34 -28 -35 -32 -21
-54 8 -13 12 -12 25 8 9 12 23 22 32 22 13 0 14 -8 9 -41 -15 -92 -86 -182
-139 -177 -68 7 -74 99 -14 198 40 66 113 110 132 80z"/>
<path d="M3649 474 c-64 -19 -127 -79 -174 -163 -36 -67 -102 -141 -125 -141
-21 0 -9 60 30 153 45 106 47 119 24 141 -23 23 -64 20 -106 -9 l-37 -25 -25
25 c-48 48 -58 38 -110 -114 -52 -151 -55 -189 -16 -208 13 -6 26 -10 28 -8 2
1 10 33 17 70 18 83 51 141 112 195 59 52 66 38 30 -53 -39 -97 -49 -141 -37
-171 21 -57 93 -51 157 13 36 36 43 38 43 13 0 -27 40 -59 83 -67 86 -16 175
38 247 152 33 52 36 63 18 63 -7 0 -31 -28 -53 -61 -22 -33 -58 -74 -79 -90
-48 -35 -100 -39 -116 -10 -22 41 -12 56 57 92 168 86 195 253 32 203z m71
-47 c0 -29 -48 -97 -88 -125 -32 -24 -82 -45 -82 -36 0 4 14 33 32 66 49 93
138 154 138 95z"/>
</g>
</svg>
